<?xml version="1.0" standalone="no"?>
<!DOCTYPE svg PUBLIC "-//W3C//DTD SVG 20010904//EN"
 "http://www.w3.org/TR/2001/REC-SVG-20010904/DTD/svg10.dtd">
<svg version="1.0" xmlns="http://www.w3.org/2000/svg"
 width="107.841337pt" height="108.603499pt" viewBox="0 0 107.841337 108.603499"
 preserveAspectRatio="xMidYMid meet">
<metadata>
Created by potrace 1.12, written by Peter Selinger 2001-2015
</metadata>
<g transform="translate(-25.137322,114.764556) scale(0.100000,-0.100000)"
fill="#000000" stroke="none">
<path d="M674 1135 c-260 -56 -441 -302 -421 -573 14 -193 126 -356 302 -443
185 -91 379 -74 553 48 103 73 182 192 212 322 20 84 8 232 -23 309 -105 254
-363 394 -623 337z m234 -71 l22 -6 0 -249 0 -249 -95 0 -95 0 0 -216 c0 -200
-1 -215 -17 -211 -10 3 -30 8 -45 11 l-28 6 0 455 0 454 38 6 c20 4 44 8 52
10 19 5 138 -3 168 -11z m-318 -159 l0 -145 -45 0 -45 0 0 51 c0 45 -2 50 -15
39 -20 -16 -71 -125 -78 -167 l-6 -33 94 0 95 0 0 -245 0 -246 -47 33 c-27 18
-67 50 -91 72 -47 43 -117 159 -109 179 3 7 21 18 40 24 34 10 35 10 52 -26 9
-21 27 -51 40 -67 l24 -29 1 108 0 107 -96 0 -97 0 5 85 c9 143 78 261 207
356 36 27 67 49 69 49 1 0 2 -65 2 -145z m533 46 c42 -38 83 -95 109 -153 l17
-36 -43 -15 -44 -15 -17 37 c-9 21 -27 51 -40 67 l-24 29 -1 -107 0 -108 95 0
95 0 0 -64 c0 -155 -79 -289 -232 -394 l-48 -33 0 146 0 145 45 0 45 0 0 -52
c0 -49 1 -51 19 -34 21 19 66 115 76 164 l7 32 -96 0 -96 0 0 245 0 246 47
-32 c26 -18 65 -49 86 -68z"/>
<path d="M740 820 l0 -170 50 0 50 0 0 170 0 170 -50 0 -50 0 0 -170z"/>
</g>
</svg>
